<?xml version="1.0" encoding="UTF-8"?>
<svg id="Layer_1" data-name="Layer 1" xmlns="http://www.w3.org/2000/svg" viewBox="0 0 700.77 1015.28">
  <defs>
    <style>
      .cls-1 {
        fill: #fff;
        stroke: #000;
        stroke-miterlimit: 10;
        stroke-width: .75px;
      }
    </style>
  </defs>
  <g id="dSSOkS.tif">
    <g id="dSSOkS.tif-2" data-name="dSSOkS.tif">
      <g>
        <path class="cls-1" d="M568.02,112.2c17.18,13.13,127.25,100.13,132.23,244.49.69,20.09,1.2,104.4-50.54,175.82-123.13,169.96-478.22,168.38-600.03.85C2.58,468.59.67,393.28.4,372.59-1.6,217.6,117.49,119.12,135.02,105.1c-11.4,17.49-44.68,73.41-38,149.14.55,6.28,9.4,91.95,78.32,153.8,94.81,85.08,260.04,86.28,352.83-1.06,63.2-59.48,71.98-140.46,72.85-149.7,6.81-72.46-22.03-126.59-33-145.09Z"/>
        <path class="cls-1" d="M350.19.69c3.71,5.8,9.16,14.43,15.61,24.98,67.31,110.05,103.17,170.35,88.47,228.66-1.85,7.35-7.96,30.33-27.75,49.25-28.58,27.3-65.81,27.13-76.32,27.09-10.7-.05-45.91-.21-73.9-26.03-20.7-19.1-27.18-42.76-29.14-50.3-15.96-61.34,23.52-126.55,87.08-228.66,6.57-10.56,12.16-19.19,15.96-24.98Z"/>
      </g>
    </g>
  </g>
</svg>